<svg xmlns="http://www.w3.org/2000/svg" xmlns:xlink="http://www.w3.org/1999/xlink" width="1080" zoomAndPan="magnify" viewBox="0 0 810 809.999993" height="1080" preserveAspectRatio="xMidYMid meet" version="1.0"><rect x="-81" width="972" fill="#ffffff" y="-80.999999" height="971.999992" fill-opacity="1"/><rect x="-81" width="972" fill="#ffffff" y="-80.999999" height="971.999992" fill-opacity="1"/><path fill="#ffb79f" d="M 296.738281 720.226562 L 298.273438 758.40625 C 298.273438 758.40625 240.382812 795.804688 247.699219 802.695312 C 252.324219 807.042969 295.6875 802.085938 309.652344 801.773438 C 313.65625 801.675781 336.175781 797.667969 336.175781 797.667969 C 336.371094 773.597656 335.449219 773.941406 331.382812 761.859375 L 332.589844 719.433594 Z M 296.738281 720.226562 " fill-opacity="1" fill-rule="evenodd"/><path fill="#36251e" d="M 417.839844 132.675781 L 337.90625 130.945312 C 327.460938 118.484375 317.679688 90.324219 331.859375 90.953125 C 325.578125 90.367188 318.3125 83.148438 316.636719 74.984375 C 316.636719 74.984375 334.867188 80.839844 348.140625 70.820312 C 363.25 59.410156 400.917969 47.714844 413.859375 75.046875 C 413.859375 75.046875 425.289062 73.179688 428.9375 90.472656 C 430.808594 99.347656 417.839844 132.675781 417.839844 132.675781 Z M 417.839844 132.675781 " fill-opacity="1" fill-rule="evenodd"/><path fill="#36251e" d="M 298.105469 756.535156 C 304.023438 757.835938 310.746094 760.429688 313.964844 765.585938 C 315.117188 767.4375 315.992188 771.195312 315.992188 771.195312 L 337.585938 768.632812 C 341.445312 777.273438 345.464844 785.691406 345.316406 805.359375 C 345.316406 805.359375 303.738281 806.691406 299.425781 806.789062 C 284.394531 807.128906 238.007812 809.765625 233.035156 805.109375 C 225.425781 797.984375 293.5625 759.121094 298.105469 756.535156 Z M 298.105469 756.535156 " fill-opacity="1" fill-rule="evenodd"/><path fill="#ffb79f" d="M 449.222656 719.113281 L 447.851562 757.179688 C 447.851562 757.179688 505.574219 791.636719 498.257812 798.527344 C 493.632812 802.886719 464.136719 799.035156 450.167969 798.714844 C 446.167969 798.628906 407.566406 797.386719 407.566406 797.386719 C 407.371094 773.316406 410.511719 772.828125 414.578125 760.746094 L 413.367188 718.320312 Z M 449.222656 719.113281 " fill-opacity="1" fill-rule="evenodd"/><path fill="#36251e" d="M 449.617188 755.140625 C 444.097656 756.398438 435.328125 760.054688 432.3125 765.039062 C 431.234375 766.832031 430.414062 770.464844 430.414062 770.464844 L 410.203125 767.996094 C 406.582031 776.351562 402.816406 784.484375 402.953125 803.496094 C 402.953125 803.496094 441.871094 804.765625 445.90625 804.859375 C 459.980469 805.183594 503.402344 807.710938 508.058594 803.207031 C 515.1875 796.320312 453.886719 757.636719 449.617188 755.140625 Z M 449.617188 755.140625 " fill-opacity="1" fill-rule="evenodd"/><path fill="#ffb79f" d="M 201.378906 336.441406 L 182.535156 329.226562 C 182.535156 329.226562 174.238281 332.914062 170.902344 331.6875 C 164.101562 329.183594 158.671875 327.707031 158.671875 327.707031 C 158.671875 327.707031 140.847656 324.523438 137.578125 322.921875 C 135.691406 322 136.222656 318.164062 138.472656 318.28125 C 145.332031 318.640625 157.429688 321.695312 157.546875 320.953125 C 157.65625 320.269531 138.523438 314.558594 133.234375 313.136719 C 129.414062 312.109375 130.8125 306.925781 134.195312 307.460938 C 140.429688 308.453125 157.835938 313.710938 158.289062 312.378906 C 158.507812 311.730469 136.742188 304.179688 131.917969 302.007812 C 127.757812 300.136719 130.085938 294.570312 133.519531 295.59375 C 137.992188 296.929688 159.472656 304.691406 159.859375 303.785156 C 160.292969 302.78125 139.648438 292.148438 139.648438 292.148438 C 136.242188 290.40625 138.527344 284.929688 142.355469 286.554688 L 166.726562 297.773438 L 173.769531 299.039062 C 173.847656 298.066406 174.488281 295.917969 174.992188 294.644531 C 173.371094 290.234375 176.09375 281.820312 180.757812 283.113281 C 181.773438 283.394531 181.101562 290.335938 183.417969 298.414062 C 184.714844 302.9375 190.851562 309.285156 190.851562 309.285156 L 209.480469 316.730469 Z M 201.378906 336.441406 " fill-opacity="1" fill-rule="evenodd"/><path fill="#36251e" d="M 158.722656 325.972656 C 158.839844 322.300781 159.136719 318.703125 159.609375 315.195312 C 159.804688 313.757812 160.03125 312.339844 160.285156 310.933594 C 160.457031 309.988281 160.640625 309.050781 160.839844 308.121094 C 161.175781 306.550781 161.558594 305.003906 162.003906 303.480469 C 162.683594 301.175781 163.496094 298.929688 164.5 296.75 C 164.570312 296.601562 164.511719 296.425781 164.363281 296.351562 C 164.21875 296.277344 164.039062 296.339844 163.96875 296.488281 C 162.550781 299.183594 161.402344 301.996094 160.515625 304.925781 C 160.160156 306.085938 159.851562 307.265625 159.582031 308.460938 C 159.402344 309.25 159.246094 310.046875 159.105469 310.847656 C 158.765625 312.824219 158.527344 314.839844 158.371094 316.882812 C 158.144531 319.859375 158.105469 322.890625 158.15625 325.96875 C 158.15625 326.125 158.28125 326.253906 158.4375 326.253906 C 158.59375 326.257812 158.722656 326.128906 158.722656 325.972656 Z M 158.722656 325.972656 " fill-opacity="1" fill-rule="evenodd"/><path fill="#36251e" d="M 174.773438 294.695312 C 174.277344 295.707031 173.925781 296.695312 173.71875 297.65625 C 173.5 298.6875 173.449219 299.691406 173.570312 300.660156 C 171.929688 302.984375 170.925781 305.113281 170.515625 307.074219 C 170.140625 308.871094 170.246094 310.53125 170.765625 312.046875 C 171.285156 313.554688 172.214844 314.921875 173.503906 316.160156 C 175.039062 317.636719 177.09375 318.925781 179.5625 320.066406 C 179.710938 320.136719 179.890625 320.078125 179.960938 319.929688 C 180.035156 319.78125 179.972656 319.605469 179.828125 319.53125 C 177.933594 318.53125 176.320312 317.441406 175.015625 316.273438 C 173.472656 314.886719 172.394531 313.371094 171.855469 311.683594 C 171.421875 310.339844 171.34375 308.890625 171.648438 307.300781 C 172.007812 305.410156 172.886719 303.328125 174.40625 301.03125 C 174.472656 300.933594 174.5 300.816406 174.480469 300.699219 C 174.292969 299.769531 174.285156 298.800781 174.449219 297.792969 C 174.59375 296.871094 174.875 295.917969 175.289062 294.929688 C 175.351562 294.789062 175.289062 294.621094 175.148438 294.554688 C 175.003906 294.488281 174.835938 294.554688 174.773438 294.695312 Z M 174.773438 294.695312 " fill-opacity="1" fill-rule="evenodd"/><path fill="#eda301" d="M 377.808594 181.054688 L 364.441406 182.65625 C 364.441406 182.65625 334.691406 192.671875 317.03125 197.910156 C 315.042969 198.5 292.632812 243.007812 292.632812 243.007812 L 262.449219 318.96875 L 192.78125 303.132812 L 182.507812 344.625 C 182.507812 344.625 253.230469 383.367188 275.652344 380.109375 C 298.074219 376.851562 313.429688 309.542969 313.429688 309.542969 L 315.011719 385.09375 L 276.640625 760.769531 L 352.417969 758.308594 L 380.664062 431.558594 L 389.898438 757.507812 L 469.519531 757.714844 L 442.484375 372.46875 C 442.484375 372.46875 499.863281 369.460938 500.863281 348.546875 C 502.28125 318.78125 456.8125 212.824219 442.96875 201.386719 C 432.949219 193.105469 389.105469 182 389.105469 182 Z M 377.808594 181.054688 " fill-opacity="1" fill-rule="evenodd"/><path fill="#ffb79f" d="M 363.789062 151.335938 L 389.992188 151.335938 L 389.992188 190.699219 L 363.789062 190.699219 Z M 363.789062 151.335938 " fill-opacity="1" fill-rule="evenodd"/><path fill="#36251e" d="M 363.789062 165.8125 C 371.441406 173.695312 379.308594 175.828125 389.988281 175.179688 L 389.988281 160.023438 L 363.789062 162.792969 Z M 363.789062 165.8125 " fill-opacity="1" fill-rule="evenodd"/><path fill="#ffb79f" d="M 359.820312 184.222656 C 362.121094 190.242188 366.199219 200.394531 377.039062 200.035156 C 392.121094 199.535156 394.117188 191.242188 399.332031 184.777344 C 391.929688 182.640625 389.101562 182 389.101562 182 L 377.816406 181.058594 L 364.449219 182.667969 C 364.449219 182.667969 363.34375 183.027344 359.820312 184.222656 Z M 359.820312 184.222656 " fill-opacity="1" fill-rule="evenodd"/><path fill="#faded3" d="M 315.015625 385.101562 C 358.988281 396.921875 401.882812 397.945312 443.390625 385.296875 L 469.507812 757.71875 L 389.90625 757.496094 L 380.671875 431.542969 L 352.417969 758.300781 L 276.640625 760.769531 Z M 315.015625 385.101562 " fill-opacity="1" fill-rule="evenodd"/><path fill="#36251e" d="M 369.554688 425.855469 C 371.023438 427.6875 372.628906 429.351562 374.488281 430.710938 C 375.734375 431.65625 377.121094 432.429688 378.59375 433.042969 C 379.175781 433.289062 379.785156 433.484375 380.394531 433.652344 C 381.28125 433.902344 382.222656 434.066406 383.195312 434.179688 C 385.359375 434.402344 387.632812 434.289062 390.125 433.902344 C 390.570312 433.875 390.929688 433.484375 390.902344 433.011719 C 390.875 432.570312 390.488281 432.210938 390.015625 432.238281 C 387.714844 432.179688 385.632812 431.792969 383.695312 431.292969 C 382.890625 431.070312 382.113281 430.820312 381.335938 430.542969 C 380.808594 430.378906 380.285156 430.183594 379.785156 429.988281 C 378.453125 429.519531 377.207031 428.964844 375.984375 428.324219 C 374.128906 427.296875 372.324219 426.160156 370.664062 424.746094 C 370.355469 424.441406 369.859375 424.441406 369.554688 424.746094 C 369.25 425.050781 369.25 425.550781 369.554688 425.855469 Z M 369.554688 425.855469 " fill-opacity="1" fill-rule="evenodd"/><path fill="#36251e" d="M 229.226562 312.109375 C 229.226562 312.109375 235.546875 313.886719 243.617188 315.992188 C 246.667969 316.796875 249.964844 317.632812 253.265625 318.40625 C 254.570312 318.742188 255.84375 319.019531 257.148438 319.296875 C 259.144531 319.738281 261.113281 320.128906 262.96875 320.515625 C 271.175781 322.152344 277.609375 323.347656 277.609375 323.347656 C 278 323.429688 278.386719 323.207031 278.46875 322.820312 C 278.554688 322.429688 278.332031 322.042969 277.941406 321.957031 C 277.941406 321.957031 271.621094 320.183594 263.550781 318.074219 C 261.695312 317.574219 259.753906 317.074219 257.757812 316.605469 C 256.480469 316.269531 255.207031 315.964844 253.902344 315.6875 C 250.578125 314.941406 247.25 314.246094 244.171875 313.609375 C 235.992188 311.972656 229.53125 310.777344 229.53125 310.777344 C 229.171875 310.695312 228.8125 310.917969 228.726562 311.304688 C 228.644531 311.667969 228.867188 312.027344 229.226562 312.109375 Z M 229.226562 312.109375 " fill-opacity="1" fill-rule="evenodd"/><path fill="#36251e" d="M 312.019531 252.183594 C 312.019531 252.183594 311.824219 259.757812 311.714844 269.414062 C 311.660156 273.046875 311.632812 276.960938 311.660156 280.871094 C 311.6875 282.425781 311.714844 283.949219 311.742188 285.476562 C 311.796875 287.835938 311.878906 290.136719 311.964844 292.355469 C 312.324219 301.984375 312.710938 309.558594 312.710938 309.558594 C 312.710938 309.945312 313.046875 310.25 313.433594 310.25 C 313.820312 310.25 314.15625 309.917969 314.125 309.53125 C 314.125 309.53125 314.347656 301.957031 314.460938 292.328125 C 314.488281 290.109375 314.515625 287.808594 314.515625 285.421875 C 314.515625 283.921875 314.515625 282.371094 314.488281 280.84375 C 314.402344 276.933594 314.292969 272.992188 314.15625 269.386719 C 313.792969 259.730469 313.40625 252.183594 313.40625 252.183594 C 313.378906 251.796875 313.074219 251.492188 312.710938 251.492188 C 312.324219 251.519531 312.019531 251.824219 312.019531 252.183594 Z M 312.019531 252.183594 " fill-opacity="1" fill-rule="evenodd"/><path fill="#ffb79f" d="M 411.609375 362.445312 L 408.410156 362.636719 C 408.410156 362.636719 402.777344 366.480469 399.234375 366.804688 C 392.023438 367.464844 385.375 367.90625 385.375 367.90625 C 385.375 367.90625 367.351562 368.535156 363.714844 368.761719 C 359.675781 369.015625 359.726562 363.472656 361.976562 363.351562 C 369.433594 362.949219 382.78125 363.289062 382.570312 362.566406 C 382.371094 361.902344 361.257812 362.464844 355.59375 362.34375 C 351.636719 362.257812 350.632812 357.257812 354.027344 356.804688 C 361.191406 355.855469 379.722656 357.011719 379.558594 355.613281 C 379.480469 354.9375 357.414062 355.246094 352.125 355.355469 C 347.566406 355.453125 347.277344 349.425781 350.820312 348.875 C 355.429688 348.15625 377.050781 350.382812 377.015625 349.398438 C 376.972656 348.304688 353.769531 347.570312 353.769531 347.570312 C 349.945312 347.457031 349.65625 341.53125 353.8125 341.351562 L 380.636719 341.015625 L 387.542969 339.132812 C 387.191406 338.226562 383.984375 338.246094 383.984375 338.246094 C 377.769531 340.222656 370.960938 339.078125 370.386719 333.125 C 370.386719 333.125 394.863281 327.570312 400.421875 333.871094 C 403.535156 337.398438 407.367188 341.050781 407.367188 341.050781 L 410.46875 341.164062 Z M 411.609375 362.445312 " fill-opacity="1" fill-rule="evenodd"/><path fill="#36251e" d="M 434.074219 285.394531 L 444.941406 322.570312 C 444.941406 322.570312 411.78125 327.148438 411.78125 327.148438 C 411.199219 327.230469 410.753906 327.671875 410.644531 328.257812 C 409.367188 335.773438 408.59375 343.433594 408.925781 351.089844 C 409.230469 358.664062 410.617188 366.207031 413.5 373.617188 C 413.695312 374.085938 414.136719 374.421875 414.664062 374.476562 C 425.535156 375.140625 436.402344 374.644531 447.410156 373.253906 C 457.917969 371.953125 468.566406 369.816406 479.519531 367.179688 C 479.90625 367.097656 480.128906 366.707031 480.046875 366.320312 C 479.960938 365.929688 479.574219 365.710938 479.1875 365.792969 C 468.261719 368.179688 457.640625 370.035156 447.160156 371.148438 C 436.570312 372.285156 426.117188 372.617188 415.691406 371.894531 C 413.167969 364.988281 412.03125 357.996094 411.753906 350.976562 C 411.449219 343.847656 412.058594 336.691406 413.140625 329.671875 C 413.140625 329.671875 446.523438 324.566406 446.523438 324.566406 C 446.828125 324.511719 447.105469 324.34375 447.273438 324.066406 C 447.4375 323.789062 447.492188 323.484375 447.410156 323.179688 L 435.347656 285.003906 C 435.265625 284.644531 434.878906 284.449219 434.515625 284.5625 C 434.15625 284.644531 433.960938 285.03125 434.074219 285.394531 Z M 434.074219 285.394531 " fill-opacity="1" fill-rule="evenodd"/><path fill="#ffb79f" d="M 351.03125 126.570312 C 351.03125 127.296875 350.972656 128.019531 350.851562 128.734375 C 350.730469 129.453125 350.550781 130.144531 350.308594 130.820312 C 350.074219 131.492188 349.78125 132.132812 349.433594 132.738281 C 349.089844 133.347656 348.695312 133.90625 348.257812 134.421875 C 347.816406 134.9375 347.335938 135.398438 346.820312 135.804688 C 346.300781 136.210938 345.757812 136.550781 345.179688 136.832031 C 344.605469 137.109375 344.011719 137.320312 343.402344 137.460938 C 342.792969 137.605469 342.175781 137.675781 341.554688 137.675781 C 340.929688 137.675781 340.316406 137.605469 339.703125 137.460938 C 339.09375 137.320312 338.5 137.109375 337.925781 136.832031 C 337.351562 136.550781 336.804688 136.210938 336.289062 135.804688 C 335.769531 135.398438 335.292969 134.9375 334.851562 134.421875 C 334.410156 133.90625 334.019531 133.347656 333.671875 132.738281 C 333.328125 132.132812 333.035156 131.492188 332.796875 130.820312 C 332.558594 130.144531 332.378906 129.453125 332.257812 128.734375 C 332.136719 128.019531 332.074219 127.296875 332.074219 126.570312 C 332.074219 125.839844 332.136719 125.117188 332.257812 124.402344 C 332.378906 123.6875 332.558594 122.992188 332.796875 122.320312 C 333.035156 121.644531 333.328125 121.003906 333.671875 120.398438 C 334.019531 119.792969 334.410156 119.230469 334.851562 118.714844 C 335.292969 118.199219 335.769531 117.738281 336.289062 117.335938 C 336.804688 116.929688 337.351562 116.585938 337.925781 116.308594 C 338.5 116.027344 339.09375 115.816406 339.703125 115.675781 C 340.316406 115.535156 340.929688 115.460938 341.554688 115.460938 C 342.175781 115.460938 342.792969 115.535156 343.402344 115.675781 C 344.011719 115.816406 344.605469 116.027344 345.179688 116.308594 C 345.757812 116.585938 346.300781 116.929688 346.820312 117.335938 C 347.335938 117.738281 347.816406 118.199219 348.257812 118.714844 C 348.695312 119.230469 349.089844 119.792969 349.433594 120.398438 C 349.78125 121.003906 350.074219 121.644531 350.308594 122.320312 C 350.550781 122.992188 350.730469 123.6875 350.851562 124.402344 C 350.972656 125.117188 351.03125 125.839844 351.03125 126.570312 Z M 351.03125 126.570312 " fill-opacity="1" fill-rule="nonzero"/><path fill="#ffb79f" d="M 421.875 126.570312 C 421.875 127.296875 421.8125 128.019531 421.691406 128.734375 C 421.570312 129.453125 421.390625 130.144531 421.152344 130.820312 C 420.914062 131.492188 420.621094 132.132812 420.277344 132.738281 C 419.929688 133.347656 419.535156 133.90625 419.097656 134.421875 C 418.65625 134.9375 418.179688 135.398438 417.660156 135.804688 C 417.144531 136.210938 416.597656 136.550781 416.023438 136.832031 C 415.445312 137.109375 414.855469 137.320312 414.242188 137.460938 C 413.632812 137.605469 413.015625 137.675781 412.394531 137.675781 C 411.773438 137.675781 411.15625 137.605469 410.546875 137.460938 C 409.933594 137.320312 409.34375 137.109375 408.765625 136.832031 C 408.191406 136.550781 407.644531 136.210938 407.128906 135.804688 C 406.613281 135.398438 406.132812 134.9375 405.691406 134.421875 C 405.253906 133.90625 404.859375 133.347656 404.511719 132.738281 C 404.167969 132.132812 403.875 131.492188 403.636719 130.820312 C 403.398438 130.144531 403.21875 129.453125 403.097656 128.734375 C 402.976562 128.019531 402.917969 127.296875 402.917969 126.570312 C 402.917969 125.839844 402.976562 125.117188 403.097656 124.402344 C 403.21875 123.6875 403.398438 122.992188 403.636719 122.320312 C 403.875 121.644531 404.167969 121.003906 404.515625 120.398438 C 404.859375 119.792969 405.253906 119.230469 405.691406 118.714844 C 406.132812 118.199219 406.613281 117.738281 407.128906 117.335938 C 407.644531 116.929688 408.191406 116.585938 408.765625 116.308594 C 409.34375 116.027344 409.933594 115.816406 410.546875 115.675781 C 411.15625 115.535156 411.773438 115.460938 412.394531 115.460938 C 413.015625 115.460938 413.632812 115.535156 414.242188 115.675781 C 414.855469 115.816406 415.445312 116.027344 416.023438 116.308594 C 416.597656 116.585938 417.144531 116.929688 417.660156 117.335938 C 418.179688 117.738281 418.65625 118.199219 419.097656 118.714844 C 419.535156 119.230469 419.929688 119.792969 420.277344 120.398438 C 420.621094 121.003906 420.914062 121.644531 421.152344 122.320312 C 421.390625 122.992188 421.570312 123.6875 421.691406 124.402344 C 421.8125 125.117188 421.875 125.839844 421.875 126.570312 Z M 421.875 126.570312 " fill-opacity="1" fill-rule="nonzero"/><path fill="#ffb79f" d="M 378.707031 71.976562 C 389.691406 71.976562 394.847656 80.050781 402.167969 87.085938 C 409.933594 94.546875 417.535156 100.980469 415.292969 120.960938 C 412.261719 147.976562 398.019531 170.496094 378.707031 170.496094 C 356.0625 170.496094 342.996094 149.816406 339.320312 122.878906 C 333.777344 82.265625 356.0625 71.976562 378.707031 71.976562 Z M 378.707031 71.976562 " fill-opacity="1" fill-rule="evenodd"/><path fill="#36251e" d="M 366.730469 146.761719 C 366.492188 146.972656 367.398438 154.402344 376.613281 154.582031 C 384.917969 154.746094 385.730469 146.003906 385.492188 145.773438 C 385.25 145.542969 366.96875 146.550781 366.730469 146.761719 Z M 366.730469 146.761719 " fill-opacity="1" fill-rule="evenodd"/><path fill="#36251e" d="M 364.058594 122.957031 C 364.058594 123.320312 364.039062 123.683594 363.996094 124.039062 C 363.957031 124.398438 363.894531 124.746094 363.816406 125.082031 C 363.734375 125.417969 363.636719 125.738281 363.523438 126.042969 C 363.40625 126.34375 363.273438 126.625 363.125 126.882812 C 362.976562 127.140625 362.816406 127.371094 362.640625 127.574219 C 362.46875 127.777344 362.285156 127.949219 362.089844 128.085938 C 361.898438 128.226562 361.699219 128.332031 361.492188 128.402344 C 361.289062 128.476562 361.082031 128.511719 360.871094 128.511719 C 360.660156 128.511719 360.453125 128.476562 360.25 128.402344 C 360.042969 128.332031 359.84375 128.226562 359.652344 128.085938 C 359.457031 127.949219 359.273438 127.777344 359.101562 127.574219 C 358.925781 127.371094 358.765625 127.140625 358.617188 126.882812 C 358.46875 126.625 358.335938 126.34375 358.21875 126.042969 C 358.105469 125.738281 358.007812 125.417969 357.925781 125.082031 C 357.847656 124.746094 357.785156 124.398438 357.746094 124.039062 C 357.703125 123.683594 357.683594 123.320312 357.683594 122.957031 C 357.683594 122.59375 357.703125 122.230469 357.746094 121.875 C 357.785156 121.515625 357.847656 121.167969 357.925781 120.832031 C 358.007812 120.496094 358.105469 120.175781 358.21875 119.871094 C 358.335938 119.570312 358.46875 119.289062 358.617188 119.03125 C 358.765625 118.773438 358.925781 118.542969 359.101562 118.339844 C 359.273438 118.136719 359.457031 117.964844 359.652344 117.828125 C 359.84375 117.6875 360.042969 117.582031 360.25 117.511719 C 360.453125 117.4375 360.660156 117.402344 360.871094 117.402344 C 361.082031 117.402344 361.289062 117.4375 361.492188 117.511719 C 361.699219 117.582031 361.898438 117.6875 362.089844 117.828125 C 362.285156 117.964844 362.46875 118.136719 362.640625 118.339844 C 362.816406 118.542969 362.976562 118.773438 363.125 119.03125 C 363.273438 119.289062 363.40625 119.570312 363.523438 119.871094 C 363.636719 120.175781 363.734375 120.496094 363.816406 120.832031 C 363.894531 121.167969 363.957031 121.515625 363.996094 121.875 C 364.039062 122.230469 364.058594 122.59375 364.058594 122.957031 Z M 364.058594 122.957031 " fill-opacity="1" fill-rule="nonzero"/><path fill="#36251e" d="M 391.101562 122.957031 C 391.101562 123.320312 391.082031 123.683594 391.039062 124.039062 C 391 124.398438 390.9375 124.746094 390.859375 125.082031 C 390.777344 125.417969 390.679688 125.738281 390.5625 126.042969 C 390.449219 126.34375 390.316406 126.625 390.167969 126.882812 C 390.019531 127.140625 389.859375 127.371094 389.683594 127.574219 C 389.511719 127.777344 389.328125 127.949219 389.132812 128.085938 C 388.941406 128.226562 388.742188 128.332031 388.535156 128.402344 C 388.332031 128.476562 388.121094 128.511719 387.914062 128.511719 C 387.703125 128.511719 387.496094 128.476562 387.292969 128.402344 C 387.085938 128.332031 386.886719 128.226562 386.695312 128.085938 C 386.5 127.949219 386.316406 127.777344 386.140625 127.574219 C 385.96875 127.371094 385.808594 127.140625 385.660156 126.882812 C 385.511719 126.625 385.378906 126.34375 385.261719 126.042969 C 385.148438 125.738281 385.046875 125.417969 384.96875 125.082031 C 384.886719 124.746094 384.828125 124.398438 384.785156 124.039062 C 384.746094 123.683594 384.726562 123.320312 384.726562 122.957031 C 384.726562 122.59375 384.746094 122.230469 384.785156 121.875 C 384.828125 121.515625 384.886719 121.167969 384.96875 120.832031 C 385.046875 120.496094 385.148438 120.175781 385.261719 119.871094 C 385.378906 119.570312 385.511719 119.289062 385.660156 119.03125 C 385.808594 118.773438 385.96875 118.542969 386.140625 118.339844 C 386.316406 118.136719 386.5 117.964844 386.695312 117.828125 C 386.886719 117.6875 387.085938 117.582031 387.292969 117.511719 C 387.496094 117.4375 387.703125 117.402344 387.914062 117.402344 C 388.121094 117.402344 388.332031 117.4375 388.535156 117.511719 C 388.742188 117.582031 388.941406 117.6875 389.132812 117.828125 C 389.328125 117.964844 389.511719 118.136719 389.683594 118.339844 C 389.859375 118.542969 390.019531 118.773438 390.167969 119.03125 C 390.316406 119.289062 390.449219 119.570312 390.5625 119.871094 C 390.679688 120.175781 390.777344 120.496094 390.859375 120.832031 C 390.9375 121.167969 391 121.515625 391.039062 121.875 C 391.082031 122.230469 391.101562 122.59375 391.101562 122.957031 Z M 391.101562 122.957031 " fill-opacity="1" fill-rule="nonzero"/><path fill="#36251e" d="M 384.582031 109.445312 C 385.652344 108.894531 386.804688 108.605469 387.988281 108.421875 C 388.566406 108.335938 389.140625 108.300781 389.722656 108.28125 C 390.292969 108.253906 390.863281 108.289062 391.429688 108.320312 C 391.882812 108.347656 392.332031 108.386719 392.777344 108.441406 C 393.460938 108.527344 394.128906 108.628906 394.765625 108.820312 C 395.898438 109.164062 396.949219 109.617188 397.792969 110.394531 C 398.058594 110.707031 398.535156 110.753906 398.855469 110.484375 C 399.171875 110.214844 399.214844 109.742188 398.945312 109.417969 C 398 107.964844 396.613281 106.867188 394.960938 106.125 C 394.328125 105.84375 393.65625 105.636719 392.957031 105.492188 C 392.503906 105.40625 392.039062 105.347656 391.574219 105.34375 C 390.433594 105.316406 389.273438 105.460938 388.164062 105.796875 C 386.539062 106.289062 385.042969 107.117188 383.761719 108.261719 C 383.433594 108.484375 383.351562 108.933594 383.578125 109.261719 C 383.804688 109.589844 384.253906 109.675781 384.582031 109.445312 Z M 384.582031 109.445312 " fill-opacity="1" fill-rule="evenodd"/><path fill="#36251e" d="M 367.121094 108.261719 C 365.839844 107.117188 364.339844 106.289062 362.71875 105.796875 C 361.605469 105.460938 360.445312 105.316406 359.308594 105.34375 C 358.839844 105.347656 358.378906 105.40625 357.925781 105.492188 C 357.226562 105.636719 356.554688 105.84375 355.921875 106.125 C 354.269531 106.867188 352.878906 107.964844 351.9375 109.417969 C 351.667969 109.742188 351.710938 110.214844 352.027344 110.484375 C 352.347656 110.753906 352.824219 110.707031 353.089844 110.394531 C 353.933594 109.617188 354.980469 109.164062 356.113281 108.820312 C 356.753906 108.628906 357.421875 108.527344 358.105469 108.441406 C 358.550781 108.386719 359 108.347656 359.453125 108.320312 C 360.019531 108.289062 360.585938 108.253906 361.160156 108.28125 C 361.742188 108.300781 362.316406 108.335938 362.894531 108.421875 C 364.078125 108.605469 365.226562 108.894531 366.300781 109.445312 C 366.628906 109.675781 367.078125 109.589844 367.304688 109.261719 C 367.53125 108.933594 367.449219 108.484375 367.121094 108.261719 Z M 367.121094 108.261719 " fill-opacity="1" fill-rule="evenodd"/><path fill="#36251e" d="M 374.546875 113.269531 C 374.546875 113.269531 374.921875 117.414062 375.207031 122.101562 C 375.328125 124.046875 375.429688 126.09375 375.488281 127.972656 C 375.570312 130.617188 375.570312 132.917969 375.304688 134.105469 C 375.289062 134.183594 375.207031 134.1875 375.121094 134.195312 C 374.867188 134.234375 374.558594 134.203125 374.210938 134.144531 C 373.296875 133.996094 372.183594 133.65625 371.125 133.449219 C 370.273438 133.28125 369.453125 133.195312 368.78125 133.300781 C 367.867188 133.449219 367.171875 133.898438 366.882812 134.851562 C 366.441406 136.3125 366.789062 137.660156 367.507812 138.800781 C 368.933594 141.054688 371.789062 142.492188 371.789062 142.492188 C 371.96875 142.589844 372.199219 142.519531 372.296875 142.335938 C 372.394531 142.152344 372.324219 141.925781 372.140625 141.828125 C 372.140625 141.828125 369.597656 140.386719 368.40625 138.261719 C 367.898438 137.367188 367.648438 136.332031 368.039062 135.234375 C 368.171875 134.851562 368.460938 134.675781 368.816406 134.605469 C 369.238281 134.527344 369.738281 134.578125 370.273438 134.675781 C 371.414062 134.882812 372.6875 135.320312 373.738281 135.539062 C 374.472656 135.695312 375.121094 135.734375 375.589844 135.617188 C 376.207031 135.460938 376.617188 135.085938 376.761719 134.417969 C 376.929688 133.628906 377.007812 132.390625 376.988281 130.894531 C 376.972656 129.394531 376.875 127.628906 376.726562 125.796875 C 376.242188 119.8125 375.261719 113.1875 375.261719 113.1875 C 375.238281 112.992188 375.058594 112.847656 374.863281 112.875 C 374.664062 112.894531 374.523438 113.078125 374.546875 113.269531 Z M 374.546875 113.269531 " fill-opacity="1" fill-rule="evenodd"/><path fill="#36251e" d="M 332.039062 110.980469 L 337.613281 90.035156 C 333.257812 86.597656 357.632812 64.511719 377.566406 67.785156 C 388.90625 69.671875 404.1875 72.695312 411.589844 81.269531 C 421.515625 92.726562 421.738281 110.148438 421.738281 110.148438 C 421.738281 110.148438 420.074219 128.542969 415.914062 128.460938 C 413.558594 128.40625 412.917969 116.003906 412.917969 116.003906 C 412.917969 116.003906 408.066406 105.601562 408.066406 94.863281 C 390.847656 102.132812 353.804688 109.039062 343.269531 104.378906 C 343.269531 104.378906 344.765625 128.347656 342.328125 128.738281 C 335.617188 129.765625 332.039062 110.980469 332.039062 110.980469 Z M 332.039062 110.980469 " fill-opacity="1" fill-rule="evenodd"/><path fill="#00bcf2" d="M 504.558594 384.269531 C 514.5 385.335938 523.054688 373.03125 518.59375 364.085938 L 519.550781 368.171875 C 517.890625 357.988281 502.65625 353.457031 495.699219 361.078125 C 488.804688 368.628906 494.394531 383.179688 504.558594 384.269531 Z M 504.558594 384.269531 " fill-opacity="1" fill-rule="nonzero"/><path fill="#00bcf2" d="M 1182.628906 390.875 C 1157.339844 390.398438 1143.828125 414.632812 1116.734375 408.777344 C 1107.183594 406.714844 1086.117188 404.222656 1078.25 398.695312 C 1063.382812 388.257812 1075.496094 391.230469 1076.109375 377.402344 C 1076.90625 359.351562 1064.230469 358.792969 1049.726562 369.859375 C 1036.585938 379.882812 1022.605469 395.609375 1005.1875 397.464844 C 982.136719 399.917969 985.789062 373.898438 966.609375 376.445312 C 958.253906 377.554688 951.402344 383.300781 944.261719 387.789062 C 928.769531 397.527344 917.816406 381 902.347656 393.019531 C 895.363281 398.449219 889.652344 405.949219 881.335938 408.96875 C 873.019531 411.988281 861.015625 406.78125 862.136719 398.007812 C 862.808594 392.722656 867.90625 388.847656 868.6875 383.578125 C 869.863281 375.640625 860.859375 369.898438 852.894531 368.933594 C 836.644531 366.960938 819.820312 373.511719 805.007812 379.363281 C 798.089844 382.097656 777.207031 396.144531 770.574219 391.984375 C 766.722656 389.566406 764.925781 384.972656 763.488281 380.660156 C 762.046875 376.347656 760.53125 371.722656 756.945312 368.929688 C 749.847656 363.410156 739.128906 368.347656 733.558594 375.40625 C 727.992188 382.46875 724.933594 391.457031 718.359375 397.589844 C 711.097656 404.363281 700.5 406.582031 690.605469 405.726562 C 678.921875 404.71875 668.949219 397.53125 657.976562 396.089844 C 645.363281 394.433594 632.980469 402.289062 620.753906 395.515625 C 604.105469 386.285156 596.335938 371.554688 574.683594 377.859375 C 557.917969 382.738281 544.191406 398.109375 527.910156 404.8125 C 515.171875 410.054688 499.859375 411.316406 488.105469 404.132812 C 485.128906 402.316406 482.4375 400 479.246094 398.589844 C 460.683594 390.398438 446.019531 423.023438 422.039062 405.003906 C 416.5625 400.886719 412.480469 395.066406 406.742188 391.316406 C 382.851562 375.71875 390.433594 416.9375 369.5 412.53125 C 362.9375 411.148438 359.128906 401.46875 351.464844 400.222656 C 338.210938 398.074219 327.1875 410.6875 316.320312 416.292969 C 301.300781 424.035156 282.421875 423.75 267.644531 415.554688 C 257.238281 409.785156 248.988281 400.515625 238.191406 395.507812 C 216.074219 385.242188 193.789062 408.40625 170.285156 402.988281 C 156.925781 399.910156 144.902344 392.804688 132.207031 387.621094 C 119.515625 382.4375 105.011719 379.210938 92.222656 384.15625 C 83.207031 387.648438 76.117188 394.796875 67.582031 399.339844 C 55.09375 405.988281 50.707031 401.027344 41.09375 396.175781 C 31.324219 391.246094 25.980469 391.359375 14.8125 396.304688 C 10.71875 398.117188 6.628906 399.925781 2.539062 401.738281 L 2.539062 430.070312 C 2.539062 602.144531 2.539062 838.757812 2.539062 838.757812 L 1192.140625 838.757812 C 1192.140625 838.757812 1192.140625 598.164062 1192.140625 426.832031 L 1192.140625 392.398438 C 1189.390625 391.492188 1186.226562 390.941406 1182.628906 390.875 Z M 1182.628906 390.875 " fill-opacity="1" fill-rule="nonzero"/><path fill="#00bcf2" d="M 292.800781 398.921875 C 295.019531 399.898438 297.03125 400.253906 299.320312 400.402344 C 301.910156 400.871094 304.265625 400.542969 307.351562 399.714844 C 310.101562 398.976562 312.851562 398.234375 315.605469 397.496094 C 320.933594 396.0625 324.050781 390.007812 322.519531 384.804688 C 321.003906 379.632812 315.085938 376.140625 309.824219 377.886719 C 307.121094 378.78125 304.417969 379.679688 301.710938 380.574219 C 298.558594 381.621094 296.207031 382.644531 294.144531 384.746094 C 292.550781 385.972656 291.179688 387.257812 290.027344 389.050781 C 288.058594 392.125 289.359375 397.402344 292.800781 398.921875 Z M 292.800781 398.921875 " fill-opacity="1" fill-rule="nonzero"/><path fill="#00bcf2" d="M 1186.871094 429.171875 C 1161.902344 438.015625 1135.542969 442.898438 1110.03125 435.847656 C 1084.253906 428.722656 1068.726562 434.777344 1042.300781 437.90625 C 1020.1875 440.523438 1015.328125 426.917969 998.265625 420.492188 C 978.949219 413.214844 961.476562 432 943.457031 434.859375 C 926.261719 437.585938 905.539062 434.160156 887.816406 434.289062 C 873.753906 434.390625 859.253906 434.414062 846.234375 429.085938 C 836.96875 425.292969 828.9375 418.964844 819.792969 414.890625 C 792.878906 402.902344 771.5625 432.277344 746.25 438.222656 C 721.664062 443.996094 696.832031 432.34375 672.234375 426.621094 C 638.957031 418.878906 604.234375 422.027344 570.214844 425.21875 C 548.484375 427.253906 526.738281 429.757812 504.96875 431.335938 C 492.921875 432.210938 477.113281 428.296875 465.640625 431.542969 C 449.652344 436.0625 442.546875 450.386719 423.980469 451.058594 C 409.335938 451.589844 395.433594 443.957031 380.699219 444.003906 C 350.949219 444.101562 323.183594 455.394531 292.90625 450.46875 C 271.894531 447.050781 252.472656 437.292969 231.890625 431.855469 C 215.746094 427.585938 199.222656 426.03125 182.605469 426.039062 C 166.496094 426.042969 152.875 420.464844 137.371094 415.238281 C 128.105469 412.113281 117.464844 409.097656 108.984375 413.96875 C 99.808594 419.242188 96.757812 431.9375 87.339844 436.765625 C 79.046875 441.015625 68.949219 437.609375 60.730469 433.214844 C 52.511719 428.824219 44.226562 423.316406 34.90625 423.410156 C 27.640625 423.488281 20.917969 427 13.945312 429.050781 C 11.761719 429.691406 7.402344 430.148438 2.539062 430.070312 C 2.539062 602.144531 2.539062 838.757812 2.539062 838.757812 L 1192.136719 838.757812 C 1192.136719 838.757812 1192.136719 598.164062 1192.136719 426.832031 C 1190.53125 427.699219 1188.789062 428.492188 1186.871094 429.171875 Z M 1186.871094 429.171875 " fill-opacity="1" fill-rule="nonzero"/><path fill="#b1e3fa" d="M 495.699219 361.078125 C 502.65625 353.457031 517.890625 357.988281 519.550781 368.171875 L 518.59375 364.085938 C 523.054688 373.03125 514.5 385.335938 504.558594 384.269531 C 494.394531 383.179688 488.804688 368.628906 495.699219 361.078125 Z M 1114.316406 386.855469 C 1117.355469 385.984375 1120.027344 383.871094 1121.453125 381.03125 C 1122.847656 378.253906 1123.515625 374.050781 1121.757812 371.246094 C 1120.191406 366.929688 1115.949219 363.855469 1111.238281 364.296875 C 1110.199219 364.394531 1109.1875 364.644531 1108.28125 365.195312 L 1107.277344 366 C 1107.269531 366.007812 1107.269531 366.003906 1107.265625 366.011719 C 1107.15625 366.070312 1106.652344 366.367188 1106.578125 366.421875 C 1106.074219 366.789062 1105.535156 367.214844 1105.09375 367.671875 C 1104.8125 367.960938 1104.609375 368.261719 1104.386719 368.5625 C 1102.648438 368.898438 1101.257812 369.753906 1100.179688 371.203125 C 1098.726562 373.152344 1098.675781 375.023438 1099.027344 377.34375 C 1100.03125 383.898438 1108.035156 388.65625 1114.316406 386.855469 Z M 292.800781 398.921875 C 295.019531 399.898438 297.03125 400.253906 299.320312 400.402344 C 301.910156 400.871094 304.265625 400.542969 307.351562 399.714844 C 310.101562 398.976562 312.851562 398.234375 315.605469 397.496094 C 320.933594 396.0625 324.050781 390.007812 322.523438 384.804688 C 321.003906 379.632812 315.085938 376.140625 309.824219 377.886719 C 307.121094 378.78125 304.417969 379.679688 301.714844 380.574219 C 298.558594 381.621094 296.207031 382.644531 294.144531 384.746094 C 292.550781 385.972656 291.179688 387.257812 290.027344 389.050781 C 288.058594 392.125 289.359375 397.402344 292.800781 398.921875 Z M 13.945312 429.050781 C 20.917969 427 27.640625 423.488281 34.90625 423.410156 C 44.226562 423.316406 52.511719 428.824219 60.730469 433.214844 C 68.949219 437.609375 79.046875 441.015625 87.339844 436.765625 C 96.757812 431.9375 99.808594 419.242188 108.984375 413.96875 C 117.464844 409.097656 128.105469 412.113281 137.371094 415.238281 C 152.875 420.464844 166.496094 426.042969 182.605469 426.039062 C 199.222656 426.03125 215.746094 427.585938 231.890625 431.855469 C 252.472656 437.292969 271.894531 447.050781 292.90625 450.46875 C 323.183594 455.394531 350.949219 444.101562 380.699219 444.003906 C 395.433594 443.957031 409.335938 451.589844 423.980469 451.058594 C 442.546875 450.386719 449.652344 436.0625 465.640625 431.542969 C 477.113281 428.296875 492.921875 432.210938 504.96875 431.335938 C 526.738281 429.757812 548.484375 427.253906 570.214844 425.21875 C 604.234375 422.027344 638.957031 418.878906 672.234375 426.621094 C 696.832031 432.34375 721.664062 443.996094 746.25 438.222656 C 771.5625 432.277344 792.878906 402.902344 819.792969 414.890625 C 828.9375 418.964844 836.96875 425.292969 846.234375 429.085938 C 859.253906 434.414062 873.753906 434.390625 887.816406 434.289062 C 905.539062 434.160156 926.261719 437.585938 943.457031 434.859375 C 961.476562 432 978.949219 413.214844 998.265625 420.492188 C 1015.328125 426.917969 1020.1875 440.523438 1042.300781 437.90625 C 1068.726562 434.777344 1084.253906 428.722656 1110.03125 435.847656 C 1135.542969 442.898438 1161.902344 438.015625 1186.871094 429.171875 C 1188.789062 428.492188 1190.53125 427.699219 1192.136719 426.832031 L 1192.136719 392.398438 C 1189.390625 391.492188 1186.226562 390.941406 1182.628906 390.875 C 1157.339844 390.398438 1143.828125 414.632812 1116.734375 408.777344 C 1107.1875 406.714844 1086.117188 404.222656 1078.25 398.695312 C 1063.382812 388.257812 1075.496094 391.230469 1076.109375 377.402344 C 1076.90625 359.351562 1064.230469 358.792969 1049.726562 369.859375 C 1036.585938 379.882812 1022.605469 395.609375 1005.1875 397.464844 C 982.136719 399.917969 985.789062 373.898438 966.613281 376.445312 C 958.253906 377.554688 951.398438 383.300781 944.261719 387.789062 C 928.769531 397.527344 917.816406 381 902.347656 393.019531 C 895.359375 398.449219 889.652344 405.949219 881.335938 408.96875 C 873.019531 411.988281 861.015625 406.78125 862.136719 398.007812 C 862.808594 392.722656 867.90625 388.847656 868.6875 383.578125 C 869.863281 375.640625 860.859375 369.898438 852.894531 368.933594 C 836.648438 366.960938 819.820312 373.511719 805.007812 379.363281 C 798.09375 382.097656 777.207031 396.144531 770.574219 391.984375 C 766.722656 389.566406 764.925781 384.972656 763.488281 380.660156 C 762.046875 376.347656 760.53125 371.722656 756.941406 368.929688 C 749.847656 363.410156 739.128906 368.347656 733.5625 375.40625 C 727.992188 382.46875 724.933594 391.457031 718.359375 397.589844 C 711.097656 404.363281 700.5 406.582031 690.605469 405.726562 C 678.921875 404.71875 668.953125 397.53125 657.976562 396.089844 C 645.363281 394.433594 632.980469 402.289062 620.753906 395.515625 C 604.105469 386.285156 596.335938 371.554688 574.683594 377.859375 C 557.917969 382.738281 544.191406 398.109375 527.910156 404.8125 C 515.171875 410.054688 499.859375 411.316406 488.105469 404.132812 C 485.128906 402.316406 482.4375 400 479.246094 398.589844 C 460.683594 390.398438 446.019531 423.023438 422.039062 405.003906 C 416.5625 400.886719 412.480469 395.066406 406.742188 391.316406 C 382.851562 375.71875 390.433594 416.9375 369.5 412.53125 C 362.9375 411.148438 359.128906 401.46875 351.464844 400.222656 C 338.210938 398.074219 327.1875 410.6875 316.320312 416.292969 C 301.300781 424.035156 282.421875 423.75 267.644531 415.554688 C 257.238281 409.785156 248.988281 400.515625 238.191406 395.507812 C 216.074219 385.242188 193.789062 408.40625 170.285156 402.988281 C 156.925781 399.910156 144.902344 392.804688 132.207031 387.621094 C 119.515625 382.4375 105.011719 379.210938 92.222656 384.15625 C 83.207031 387.648438 76.117188 394.796875 67.582031 399.339844 C 55.09375 405.988281 50.707031 401.027344 41.09375 396.175781 C 31.324219 391.246094 25.980469 391.359375 14.8125 396.304688 C 10.71875 398.117188 6.628906 399.925781 2.539062 401.738281 L 2.539062 430.070312 C 7.402344 430.148438 11.761719 429.691406 13.945312 429.050781 Z M 13.945312 429.050781 " fill-opacity="1" fill-rule="nonzero"/></svg>